<svg width="742" height="327" viewBox="0 0 742 327" fill="none" xmlns="http://www.w3.org/2000/svg">
<path d="M115.933 43.4545C146.183 32.5219 171.124 33.3692 188.506 36.9533C197.197 38.7451 203.997 41.2208 208.626 43.2495C210.94 44.2638 212.712 45.1667 213.906 45.8163C214.503 46.1411 214.956 46.4026 215.26 46.5833C215.412 46.6735 215.526 46.7436 215.603 46.7912C215.642 46.815 215.671 46.8334 215.69 46.8457C215.7 46.8519 215.708 46.8566 215.713 46.8598C215.715 46.8614 215.717 46.8627 215.718 46.8635C215.719 46.8639 215.72 46.8641 215.72 46.8643C215.72 46.8657 215.711 46.879 215.618 47.0244L215.72 46.8646L215.868 46.9599L195.258 85.3112L195.104 85.2545H195.103C195.102 85.2543 195.101 85.2539 195.1 85.2534C195.097 85.2524 195.093 85.2506 195.087 85.2486C195.076 85.2445 195.059 85.2384 195.036 85.2304C194.991 85.2144 194.922 85.1906 194.832 85.16C194.651 85.0987 194.38 85.0101 194.025 84.9009C193.314 84.6823 192.264 84.3814 190.911 84.0534C188.205 83.3975 184.284 82.6332 179.433 82.2013C169.729 81.3375 156.303 81.8033 141.415 87.1237C82.6273 108.132 44.6988 175.496 73.3627 232.007C85.9877 256.897 108.165 268.695 133.653 271.618C159.147 274.541 187.944 268.582 213.759 257.958L213.945 257.882L229.969 304.822L229.805 304.891C190.185 321.193 145.962 330.353 106.779 325.86C67.589 321.367 33.4316 303.213 13.9907 264.887C-6.67379 224.149 -3.24017 177.6 16.3794 136.838C35.9987 96.077 71.8094 61.0876 115.927 43.4567L115.933 43.4545Z" fill="#C7762B"/>
<path d="M549.904 236.659L736.848 211.665L742 277.669L499.977 296.854L499.774 296.87L499.772 296.666L497.404 26.5874L549.687 22.3976L549.892 22.3809L549.904 236.659Z" fill="#C7762B"/>
<path d="M398.759 83.8918L342.8 90.704L347.102 261.536L346.923 261.55L294.816 265.726L294.611 265.743V94.5412L234.475 100.236V48.2259L387.361 35.1145L387.364 35.1142L398.759 34.3412V83.8918Z" fill="#C7762B"/>
<path d="M214.618 105.938C222.136 105.768 229.171 106.372 234.539 108.296C247.565 112.965 255.994 118.795 261.964 126.846C267.93 134.89 271.429 145.134 274.629 158.6C277.689 171.483 277.687 193.556 276.924 212.387C276.542 221.808 275.969 230.424 275.492 236.685C275.253 239.816 275.039 242.358 274.883 244.118C274.806 244.997 274.743 245.681 274.7 246.146C274.678 246.378 274.661 246.555 274.65 246.674C274.644 246.734 274.64 246.779 274.637 246.809C274.636 246.824 274.634 246.835 274.634 246.843C274.633 246.847 274.633 246.85 274.633 246.852C274.633 246.853 274.633 246.853 274.633 246.854L274.444 246.836L274.633 246.854L274.616 247.026H240.49L240.51 246.818L240.699 246.836C240.525 246.819 240.511 246.818 240.51 246.817C240.51 246.816 240.511 246.816 240.511 246.815C240.511 246.813 240.511 246.81 240.511 246.806C240.512 246.798 240.513 246.786 240.515 246.77C240.518 246.739 240.522 246.692 240.528 246.63C240.54 246.506 240.558 246.322 240.581 246.082C240.627 245.602 240.694 244.895 240.779 243.992C240.948 242.186 241.187 239.595 241.468 236.453C241.682 234.053 241.92 231.331 242.169 228.392C236.207 233.422 229.378 237.594 222.261 240.511C210.543 245.313 197.455 248.015 185.85 246.69C174.239 245.364 164.102 240.003 158.334 228.678C152.138 216.513 153.756 203.042 159.975 191.143C166.194 179.246 177.022 168.901 189.285 162.963C200.408 157.577 214.158 154.066 226.87 154.904C231.42 155.205 235.838 156.062 239.956 157.592C239.626 157.024 239.273 156.46 238.893 155.903C235.567 151.029 230.205 146.542 220.938 143C210.556 139.032 198.604 140.444 189.227 142.862C184.543 144.07 180.508 145.526 177.645 146.681C176.214 147.259 175.075 147.761 174.296 148.118C173.906 148.296 173.605 148.439 173.403 148.536C173.301 148.585 173.224 148.623 173.173 148.648C173.147 148.661 173.128 148.671 173.115 148.677C173.109 148.68 173.104 148.683 173.101 148.684L173.096 148.686L172.88 148.795L164.812 113.979L164.987 113.931L165.038 114.114C164.993 113.953 164.988 113.933 164.987 113.931C164.988 113.931 164.989 113.93 164.99 113.93C164.991 113.929 164.993 113.929 164.996 113.928C165.002 113.926 165.011 113.924 165.023 113.921C165.046 113.915 165.081 113.905 165.127 113.892C165.219 113.867 165.355 113.831 165.534 113.783C165.892 113.687 166.42 113.548 167.099 113.374C168.457 113.025 170.42 112.535 172.843 111.972C177.688 110.845 184.372 109.422 191.723 108.238C199.074 107.054 207.096 106.109 214.618 105.938Z" fill="#C7762B"/>
<path d="M397.27 111.913C411.081 105.213 428.153 100.846 443.933 101.889C459.719 102.933 474.229 109.393 482.867 124.362C492.166 140.476 489.562 157.962 480.359 173.162C471.158 188.359 455.352 201.291 438.194 208.336C423.643 214.31 407.394 217.671 392.989 216.023C378.578 214.374 366.002 207.709 358.846 193.632C351.158 178.509 353.164 161.762 360.885 146.963C368.605 132.166 382.046 119.299 397.27 111.913Z" fill="#C7762B"/>
<path d="M603.609 52.5043C617.42 45.804 634.492 41.4371 650.272 42.4802C666.058 43.5238 680.568 49.9839 689.205 64.9525C698.504 81.0669 695.901 98.5533 686.698 113.753C677.497 128.95 661.691 141.882 644.533 148.927C642.728 149.668 640.897 150.368 639.048 151.024C659.274 154.553 675.789 152.807 687.79 149.975C699.942 147.107 707.445 143.135 709.561 142.365L709.804 142.276L711.902 189.986L711.908 190.118L711.787 190.17C687.091 200.626 653.164 203.331 623.762 194.539C594.352 185.744 569.448 165.436 562.86 129.861C562.009 125.264 562.01 119.171 562.334 113.786C562.658 108.402 563.307 103.7 563.761 101.879C565.756 93.8773 570.622 84.0084 577.532 74.9065C584.442 65.8039 593.407 57.4541 603.609 52.5043Z" fill="#C7762B"/>
<path d="M677.092 0.099635C683.885 -0.570362 691.612 2.20456 698.035 6.44104C704.455 10.6759 709.618 16.4012 711.249 21.6803C712.073 24.3505 711.559 27.5765 710.177 30.7865C708.793 34.0002 706.53 37.2216 703.82 39.8967C701.11 42.5712 697.945 44.7091 694.751 45.744C691.554 46.7797 688.317 46.713 685.493 44.9551C679.953 41.5062 676.84 39.3622 673.5 37.8141C670.17 36.2702 666.613 35.3196 660.196 34.2812C658.548 34.0145 657.351 33.2891 656.559 32.2111C655.77 31.1372 655.398 29.7316 655.362 28.1255C655.289 24.9171 656.554 20.8478 658.632 16.8225C660.712 12.7931 663.618 8.78621 666.853 5.7011C670.083 2.61993 673.663 0.437798 677.092 0.099635Z" fill="#C7762B"/>
</svg>
